<svg version="1.1" id="Layer_1" xmlns="http://www.w3.org/2000/svg" x="0" y="0" width="1920" height="900" style="enable-background:new 0 0 1920 900" xml:space="preserve"><style>.st63,.st69{opacity:.716;fill:#178cff}.st69{opacity:.9775}.st101,.st70{opacity:.6343;fill:#178cff}.st101{opacity:.5432}.st145,.st150{opacity:.7249;fill:#178cff}.st150{opacity:.9474}.st180,.st214{opacity:.9538;fill:#178cff}.st214{opacity:.6002}</style><g style="opacity:.25"><path d="m1017.9 608.8-17-9.6V580l.2-.1 16.8-9.5 17 9.6v19.2l-.2.1-16.8 9.5zm-16.3-10.1 16.3 9.2 16.3-9.2v-18.4l-16.3-9.2-16.3 9.2v18.4z" style="opacity:.5653;fill:#178cff"/><path d="m751.2 665.3-.2-.1-66.8-37.8v-75.8l.2-.1 66.8-37.8.2.1 66.8 37.8v75.8l-.2.1-66.8 37.8zM684.9 627l66.3 37.5 66.3-37.5v-75l-66.3-37.5-66.3 37.5v75z" style="opacity:.7657;fill:#178cff"/><path d="m751.2 608.8-17-9.6V580l.2-.1 16.8-9.5 17 9.6v19.2l-.2.1-16.8 9.5zm-16.3-10.1 16.3 9.2 16.3-9.2v-18.4l-16.3-9.2-16.3 9.2v18.4z" style="opacity:.5793;fill:#178cff"/><path d="m884.6 853.7-33.7-19v-38.1l.2-.1 33.5-18.9 33.7 19v38.1l-.2.1-33.5 18.9zm-33-19.5 33 18.6 33-18.6V797l-33-18.6-33 18.6v37.2z" style="opacity:.901;fill:#178cff"/><path d="m884.6 891.3-67-37.9v-75.8l.2-.1 66.8-37.8 67 37.9v75.8l-.2.1-66.8 37.8zm-66.4-38.2 66.3 37.5 66.3-37.5v-74.9l-66.3-37.5-66.3 37.5v74.9z" style="opacity:.8562;fill:#178cff"/><path d="m1017.9 665.3-.2-.1-133.5-75.4V438.6l.2-.1 133.5-75.5.2.1 133.5 75.5v151.1l-.2.1-133.5 75.5zm-133-76 133 75.2 133-75.2V439l-133-75.2-133 75.2v150.3z" style="opacity:.9361;fill:#178cff"/><path d="m884.6 514.6-.2-.1-66.9-37.8v-75.8l.2-.1 66.8-37.8.2.1 66.8 37.8v75.8l-.2.1-66.7 37.8zm-66.4-38.3 66.3 37.5 66.3-37.5v-75l-66.3-37.5-66.3 37.5v75z" style="opacity:.6204;fill:#178cff"/><path d="m1151.3 665.3-.2-.1-66.8-37.8v-75.8l.2-.1 66.8-37.8.2.1 66.8 37.8v75.8l-.2.1-66.8 37.8zm-66.4-38.3 66.3 37.5 66.3-37.5v-75l-66.3-37.5-66.3 37.5v75z" style="opacity:.9207;fill:#178cff"/><path d="m1017.9 703-33.7-19v-38.1l.2-.1 33.5-18.9 33.7 19V684l-.2.1-33.5 18.9zm-33-19.5 33 18.6 33-18.6v-37.3l-33-18.6-33 18.6v37.3z" style="opacity:.7779;fill:#178cff"/><path d="m884.6 608.8-17-9.6V580l.2-.1 16.8-9.5 17 9.6v19.2l-.2.1-16.8 9.5zm-16.4-10.1 16.3 9.2 16.3-9.2v-18.4l-16.3-9.2-16.3 9.2v18.4z" style="opacity:.6118;fill:#178cff"/><path d="m1151.3 627.6-33.7-19v-38.1l.2-.1 33.5-18.9 33.7 19v38.1l-.2.1-33.5 18.9zm-33-19.4 33 18.6 33-18.6v-37.3l-33-18.6-33 18.6v37.3z" style="opacity:.6984;fill:#178cff"/><path d="m1151.3 816-.2-.1-66.8-37.8v-75.8l.2-.1 66.8-37.8.2.1 66.8 37.8v75.8l-.2.1-66.8 37.8zm-66.4-38.3 66.3 37.5 66.3-37.5v-74.9l-66.3-37.5-66.3 37.5v74.9z" style="opacity:.8157;fill:#178cff"/><path style="opacity:.5715;fill:#178cff" d="m929.4 915.9-44.5-25.2V740.4l133-75.1 133 75.1v150.3l-44.5 25.2h1.4l43.6-24.7.2-.1V740l-133.5-75.4-.2-.1-133.5 75.4-.2.1v151.1l43.8 24.8z"/><path style="opacity:.8677;fill:#178cff" d="m974.5 915.9 43.4-24.6 43.4 24.6h1.4l-44.8-25.4-44.8 25.4z"/><path style="opacity:.5475;fill:#178cff" d="M884.9 915.9v-24.8l133-75.1 133 75.1v24.8h.7v-25.2l-133.5-75.4-.2-.1-133.5 75.4-.2.1v25.2z"/><path d="m1017.9 891.3-67-37.9v-75.8l.2-.1 66.8-37.8 67 37.9v75.8l-.2.1-66.8 37.8zm-66.3-38.2 66.3 37.5 66.3-37.5v-74.9l-66.3-37.5-66.3 37.5v74.9z" style="opacity:.8834;fill:#178cff"/><path style="opacity:.5245;fill:#178cff" d="m1129.4 915.9-11.1-6.3v-37.3l33-18.6 32.9 18.6v37.3l-11.1 6.3h1.4l10.4-5.9v-38.1l-33.6-19-33.7 19V910l10.4 5.9z"/><path style="opacity:.7529;fill:#178cff" d="m974.5 915.9 43.4-24.6 43.4 24.6h1.4l-44.8-25.4-44.8 25.4z"/><path d="m1017.9 458.1-17-9.6v-19.2l.2-.1 16.8-9.5 17 9.6v19.2l-.2.1-16.8 9.5zm-16.3-10.1 16.3 9.2 16.3-9.2v-18.4l-16.3-9.2-16.3 9.2V448z" style="opacity:.8927;fill:#178cff"/><path d="m1284.6 476.9-33.7-19v-38.1l.2-.1 33.5-18.9 33.7 19v38.1l-.2.1-33.5 18.9zm-33-19.4 33 18.6 33-18.6v-37.3l-33-18.6-33 18.6v37.3z" style="opacity:.8384;fill:#178cff"/><path d="m1151.3 703-33.7-19v-38.1l.2-.1 33.5-18.9 33.7 19V684l-.2.1-33.5 18.9zm-33-19.5 33 18.6 33-18.6v-37.3l-33-18.6-33 18.6v37.3z" style="opacity:.6654;fill:#178cff"/><path d="m1017.9 608.8-17-9.6V580l.2-.1 16.8-9.5 17 9.6v19.2l-.2.1-16.8 9.5zm-16.3-10.1 16.3 9.2 16.3-9.2v-18.4l-16.3-9.2-16.3 9.2v18.4z" style="opacity:.6262;fill:#178cff"/><path d="m1017.9 759.5-17-9.6v-19.2l.2-.1 16.8-9.5 17 9.6v19.2l-.2.1-16.8 9.5zm-16.3-10 16.3 9.2 16.3-9.2V731l-16.3-9.2-16.3 9.2v18.5z" style="opacity:.5193;fill:#178cff"/><path d="m1284.6 816-.2-.1-66.8-37.8v-75.8l.2-.1 66.9-37.8.2.1 66.8 37.8v75.8l-.2.1-66.9 37.8zm-66.3-38.3 66.3 37.5 66.3-37.5v-74.9l-66.3-37.5-66.3 37.5v74.9z" style="opacity:.9905;fill:#178cff"/><path d="m1284.6 910.2-17-9.6v-19.2l17-9.6 17 9.6v19.2l-17 9.6zm-16.3-10 16.3 9.2 16.3-9.2v-18.4l-16.3-9.2-16.3 9.2v18.4z" style="opacity:.517;fill:#178cff"/><path style="opacity:.6479;fill:#178cff" d="M1218.3 915.9v-62.4l66.3-37.5 66.3 37.5v62.4h.7v-62.8l-66.8-37.8-.2-.1-66.9 37.8-.1.1v62.8z"/><path d="m1417.9 476.9-33.7-19v-38.1l.2-.1 33.5-18.9 33.7 19v38.1l-.2.1-33.5 18.9zm-32.9-19.4 33 18.6 33-18.6v-37.3l-33-18.6-33 18.6v37.3z" style="opacity:.9857;fill:#178cff"/><path d="m1417.9 816-.2-.1-66.8-37.8v-75.8l.2-.1 66.8-37.8.2.1 66.8 37.8v75.8l-.2.1-66.8 37.8zm-66.3-38.3 66.3 37.5 66.3-37.5v-74.9l-66.3-37.5-66.3 37.5v74.9z" style="opacity:.7696;fill:#178cff"/><path style="opacity:.8062;fill:#178cff" d="m1196.1 915.9-44.5-25.2V740.4l133-75.1 133 75.1v150.3l-44.5 25.2h1.4l43.6-24.7.2-.1V740l-133.5-75.4-.2-.1-133.5 75.4-.2.1v151.1l43.8 24.8z"/><path d="m1417.9 910.2-17-9.6v-19.2l17-9.6 17 9.6v19.2l-17 9.6zm-16.3-10 16.3 9.2 16.3-9.2v-18.4l-16.3-9.2-16.3 9.2v18.4z" style="opacity:.9977;fill:#178cff"/><path style="opacity:.6323;fill:#178cff" d="M1084.9 915.9v-62.4l66.4-37.5 66.3 37.5v62.4h.7v-62.8l-66.9-37.8-.1-.1-66.9 37.8-.2.1v62.8z"/><path d="m1151.3 910.2-17-9.6v-19.2l17-9.6 17 9.6v19.2l-17 9.6zm-16.4-10 16.3 9.2 16.3-9.2v-18.4l-16.3-9.2-16.3 9.2v18.4z" style="opacity:.5774;fill:#178cff"/><path style="opacity:.6004;fill:#178cff" d="M1084.9 915.9v-62.4l66.4-37.5 66.3 37.5v62.4h.7v-62.8l-66.9-37.8-.1-.1-66.9 37.8-.2.1v62.8z"/><path style="opacity:.6006;fill:#178cff" d="m1241.2 915.9 43.4-24.6 43.4 24.6h1.4l-44.8-25.4-44.8 25.4z"/><path d="m1284.6 458.1-17-9.6v-19.2l.2-.1 16.9-9.5 17 9.6v19.2l-.2.1-16.9 9.5zm-16.3-10.1 16.3 9.2 16.3-9.2v-18.4l-16.3-9.2-16.3 9.2V448z" style="opacity:.6198;fill:#178cff"/><path d="m1284.6 608.8-17-9.6V580l.2-.1 16.9-9.5 17 9.6v19.2l-.2.1-16.9 9.5zm-16.3-10.1 16.3 9.2 16.3-9.2v-18.4l-16.3-9.2-16.3 9.2v18.4z" style="opacity:.9164;fill:#178cff"/><path d="m1284.6 816-.2-.1-66.8-37.8v-75.8l.2-.1 66.9-37.8.2.1 66.8 37.8v75.8l-.2.1-66.9 37.8zm-66.3-38.3 66.3 37.5 66.3-37.5v-74.9l-66.3-37.5-66.3 37.5v74.9z" style="opacity:.5577;fill:#178cff"/><path d="m1551.3 778.3-33.7-19v-38.1l.2-.1 33.5-18.9 33.7 19v38.1l-.2.1-33.5 18.9zm-33-19.4 33 18.6 33-18.6v-37.3l-33-18.6-33 18.6v37.3z" style="opacity:.6643;fill:#178cff"/><path d="m1417.9 891.3-67-37.9v-75.8l.2-.1 66.8-37.8 67 37.9v75.8l-.2.1-66.8 37.8zm-66.3-38.2 66.3 37.5 66.3-37.5v-74.9l-66.3-37.5-66.3 37.5v74.9z" style="opacity:.9482;fill:#178cff"/><path d="m1551.3 816-.2-.1-133.5-75.5V589.3l.2-.1 133.5-75.5.2.1 133.5 75.4v151.1l-.2.1-133.5 75.6zm-133-76 133 75.2 133-75.2V589.7l-133-75.2-133 75.2V740z" style="opacity:.8287;fill:#178cff"/><path d="m1417.9 608.8-17-9.6V580l.2-.1 16.8-9.5 17 9.6v19.2l-.2.1-16.8 9.5zm-16.3-10.1 16.3 9.2 16.3-9.2v-18.4l-16.3-9.2-16.3 9.2v18.4z" style="opacity:.9627;fill:#178cff"/><path d="m1684.6 665.3-.2-.1-66.8-37.8v-75.8l.2-.1 66.9-37.8.2.1 66.8 37.8v75.8l-.2.1-66.9 37.8zm-66.3-38.3 66.3 37.5L1751 627v-75l-66.3-37.5-66.3 37.5v75z" style="opacity:.6877;fill:#178cff"/><path d="m1551.3 853.7-33.7-19v-38.1l.2-.1 33.5-18.9 33.7 19v38.1l-.2.1-33.5 18.9zm-33-19.5 33 18.6 33-18.6V797l-33-18.6-33 18.6v37.2z" style="opacity:.5544;fill:#178cff"/><path d="m1551.3 740.6-.2-.1-66.9-37.8V627l.2-.1 66.8-37.8.2.1 66.8 37.8v75.8l-.2.1-66.7 37.7zm-66.3-38.2 66.3 37.5 66.3-37.5v-75l-66.3-37.5-66.3 37.5v75z" style="opacity:.8016;fill:#178cff"/><path style="opacity:.5003;fill:#178cff" d="m1507.9 915.9 43.4-24.6 43.4 24.6h1.4l-44.8-25.4-44.8 25.4z"/><path style="opacity:.7569;fill:#178cff" d="M1351.6 915.9v-62.4l66.3-37.5 66.4 37.5v62.4h.7v-62.8l-66.9-37.8-.2-.1-66.8 37.8-.2.1v62.8z"/><path d="m1551.3 891.3-67-37.9v-75.8l.2-.1 66.8-37.8 67 37.9v75.8l-.2.1-66.8 37.8zm-66.3-38.2 66.3 37.5 66.3-37.5v-74.9l-66.3-37.5-66.3 37.5v74.9z" style="opacity:.9339;fill:#178cff"/><path style="opacity:.6722;fill:#178cff" d="m1662.8 915.9-11.1-6.3v-37.3l32.9-18.6 33 18.6v37.3l-11.1 6.3h1.4l10.4-5.9v-38.1l-33.7-19-33.7 19V910l10.5 5.9z"/><path style="opacity:.5645;fill:#178cff" d="m1507.9 915.9 43.4-24.6 43.4 24.6h1.4l-44.8-25.4-44.8 25.4z"/><path d="m1551.3 458.1-17-9.6v-19.2l.2-.1 16.9-9.5 17 9.6v19.2l-.2.1-16.9 9.5zM1535 448l16.3 9.2 16.3-9.2v-18.4l-16.3-9.2-16.3 9.2V448z" style="opacity:.7115;fill:#178cff"/><path d="m1551.3 514.6-.2-.1-66.9-37.8v-75.8l.2-.1 66.8-37.8.2.1 66.8 37.8v75.8l-.2.1-66.7 37.8zm-66.3-38.3 66.3 37.5 66.3-37.5v-75l-66.3-37.5-66.3 37.5v75z" style="opacity:.6307;fill:#178cff"/><path d="m1818 514.6-.2-.1-66.8-37.8v-75.8l.2-.1L1818 363l67 37.9v75.8l-.2.1-66.8 37.8zm-66.3-38.3 66.3 37.5 66.3-37.5v-75l-66.3-37.5-66.3 37.5v75z" style="opacity:.9278;fill:#178cff"/><path d="m1818 665.3-67-37.9v-75.8l.2-.1 66.8-37.8 67 37.9v75.8l-.2.1-66.8 37.8zm-66.3-38.3 66.3 37.5 66.3-37.5v-75l-66.3-37.5-66.3 37.5v75z" style="opacity:.6392;fill:#178cff"/><path d="m1684.6 816-.2-.1-133.5-75.5V589.3l.2-.1 133.5-75.5.2.1 133.5 75.4v151.1l-.2.1-133.5 75.6zm-132.9-76 133 75.2 133-75.2V589.7l-133-75.2-133 75.2V740z" style="opacity:.8937;fill:#178cff"/><path d="m1551.3 608.8-17-9.6V580l.2-.1 16.9-9.5 17 9.6v19.2l-.2.1-16.9 9.5zm-16.3-10.1 16.3 9.2 16.3-9.2v-18.4l-16.3-9.2-16.3 9.2v18.4z" style="opacity:.6526;fill:#178cff"/><path d="m1551.3 759.5-17-9.6v-19.2l.2-.1 16.9-9.5 17 9.6v19.2l-.2.1-16.9 9.5zm-16.3-10 16.3 9.2 16.3-9.2V731l-16.3-9.2-16.3 9.2v18.5z" style="opacity:.6213;fill:#178cff"/><path d="m1818 910.2-17-9.6v-19.2l17-9.6 17 9.6v19.2l-17 9.6zm-16.3-10 16.3 9.2 16.3-9.2v-18.4l-16.3-9.2-16.3 9.2v18.4z" style="opacity:.9916;fill:#178cff"/><path d="m1684.6 608.8-17-9.6V580l.2-.1 16.9-9.5 17 9.6v19.2l-.2.1-16.9 9.5zm-16.3-10.1 16.3 9.2 16.3-9.2v-18.4l-16.3-9.2-16.3 9.2v18.4z" style="opacity:.5206;fill:#178cff"/><path d="m1684.6 665.3-.2-.1-66.8-37.8v-75.8l.2-.1 66.9-37.8.2.1 66.8 37.8v75.8l-.2.1-66.9 37.8zm-66.3-38.3 66.3 37.5L1751 627v-75l-66.3-37.5-66.3 37.5v75z" style="opacity:.5092;fill:#178cff"/><path style="opacity:.6455;fill:#178cff" d="m1920.5 797.8-35.5-20.1v-74.9l35.5-20.1v-.8l-36 20.4-.2.1v75.7l36.2 20.5z"/><path d="m1818 891.3-67-37.9v-75.8l.2-.1 66.8-37.8 67 37.9v75.8l-.2.1-66.8 37.8zm-66.3-38.2 66.3 37.5 66.3-37.5v-74.9l-66.3-37.5-66.3 37.5v74.9z" style="opacity:.5075;fill:#178cff"/><path style="opacity:.6536;fill:#178cff" d="m1920.5 760.1-2.2-1.2v-37.3l2.2-1.2v-.8l-2.7 1.5-.2.1v38.1l2.9 1.6z"/><path class="st63" d="m1774.6 915.9 43.4-24.6 43.4 24.6h1.4l-44.8-25.4-44.9 25.4z"/><path style="opacity:.6878;fill:#178cff" d="M1618.3 915.9v-62.4l66.3-37.5 66.4 37.5v62.4h.7v-62.8l-66.9-37.8-.2-.1-66.8 37.8-.2.1v62.8z"/><path d="m1818 891.3-67-37.9v-75.8l.2-.1 66.8-37.8 67 37.9v75.8l-.2.1-66.8 37.8zm-66.3-38.2 66.3 37.5 66.3-37.5v-74.9l-66.3-37.5-66.3 37.5v74.9z" style="opacity:.8538;fill:#178cff"/><path style="opacity:.811;fill:#178cff" d="M1920.5 797.8 1818.3 740V589.7l102.2-57.7v-.8l-102.7 58-.2.1v151.1l102.9 58.2z"/><path style="opacity:.6353;fill:#178cff" d="m1862.8 915.9-44.5-25.2V740.4l102.2-57.7v-.8l-102.7 58-.2.1v151.1l43.8 24.8z"/><path style="opacity:.9972;fill:#178cff" d="m1920.5 722.4-35.5-20v-75l35.5-20v-.8l-36 20.3-.2.1v75.8l36.2 20.4z"/><path class="st69" d="m1907.9 915.9 12.6-7.1v-.8l-14 7.9z"/><path class="st70" d="m1907.9 915.9 12.6-7.1v-.8l-14 7.9z"/><path style="opacity:.8543;fill:#178cff" d="m1920.5 496.4-35.5-20.1v-75l35.5-20v-.8l-36 20.3-.2.1v75.8l36.2 20.4z"/><path style="opacity:.6795;fill:#178cff" d="M1885 915.9v-62.4l35.5-20.1v-.8l-36 20.4-.2.1v62.8z"/><path d="M1005.5 599c0 2.3-1.9 4.2-4.3 4.2s-4.3-1.9-4.3-4.2c0-2.3 1.9-4.2 4.3-4.2s4.3 1.8 4.3 4.2z" style="opacity:.8144;fill:#178cff"/><path d="M1022.2 608.4c0 2.3-1.9 4.2-4.3 4.2-2.3 0-4.3-1.9-4.3-4.2 0-2.3 1.9-4.2 4.3-4.2s4.3 1.9 4.3 4.2z" style="opacity:.728;fill:#178cff"/><path d="M1038.8 599c0 2.3-1.9 4.2-4.3 4.2-2.3 0-4.3-1.9-4.3-4.2 0-2.3 1.9-4.2 4.3-4.2s4.3 1.8 4.3 4.2z" style="opacity:.7587;fill:#178cff"/><path d="M755.5 664.9c0 2.3-1.9 4.2-4.3 4.2s-4.3-1.9-4.3-4.2c0-2.3 1.9-4.2 4.3-4.2s4.3 1.9 4.3 4.2z" style="opacity:.7652;fill:#178cff"/><path d="M738.8 580.1c0 2.3-1.9 4.2-4.3 4.2s-4.3-1.9-4.3-4.2c0-2.3 1.9-4.2 4.3-4.2s4.3 1.9 4.3 4.2z" style="opacity:.9334;fill:#178cff"/><path d="M922.2 834.4c0 2.3-1.9 4.2-4.3 4.2-2.3 0-4.3-1.9-4.3-4.2 0-2.3 1.9-4.2 4.3-4.2 2.4.1 4.3 1.9 4.3 4.2z" style="opacity:.6915;fill:#178cff"/><path d="M822.1 853.3c0 2.3-1.9 4.2-4.3 4.2s-4.3-1.9-4.3-4.2c0-2.3 1.9-4.2 4.3-4.2s4.3 1.9 4.3 4.2z" style="opacity:.5175;fill:#178cff"/><path d="M955.5 777.9c0 2.3-1.9 4.2-4.3 4.2s-4.3-1.9-4.3-4.2c0-2.3 1.9-4.2 4.3-4.2s4.3 1.9 4.3 4.2z" style="opacity:.7801;fill:#178cff"/><path d="M822.1 777.9c0 2.3-1.9 4.2-4.3 4.2s-4.3-1.9-4.3-4.2c0-2.3 1.9-4.2 4.3-4.2s4.3 1.9 4.3 4.2z" style="opacity:.8122;fill:#178cff"/><path d="M888.8 589.5c0 2.3-1.9 4.2-4.3 4.2-2.3 0-4.3-1.9-4.3-4.2 0-2.3 1.9-4.2 4.3-4.2 2.4.1 4.3 1.9 4.3 4.2z" style="opacity:.7332;fill:#178cff"/><path d="M888.8 438.8c0 2.3-1.9 4.2-4.3 4.2-2.3 0-4.3-1.9-4.3-4.2 0-2.3 1.9-4.2 4.3-4.2 2.4.1 4.3 1.9 4.3 4.2z" style="opacity:.6303;fill:#178cff"/><path d="M955.5 476.5c0 2.3-1.9 4.2-4.3 4.2s-4.3-1.9-4.3-4.2c0-2.3 1.9-4.2 4.3-4.2s4.3 1.9 4.3 4.2z" style="opacity:.5225;fill:#178cff"/><path d="M822.1 401.1c0 2.3-1.9 4.2-4.3 4.2s-4.3-1.9-4.3-4.2c0-2.3 1.9-4.2 4.3-4.2 2.4.1 4.3 1.9 4.3 4.2z" style="opacity:.7847;fill:#178cff"/><path d="M1022.2 702.6c0 2.3-1.9 4.2-4.3 4.2-2.3 0-4.3-1.9-4.3-4.2 0-2.3 1.9-4.2 4.3-4.2s4.3 1.9 4.3 4.2z" style="opacity:.9423;fill:#178cff"/><path d="M1055.5 646c0 2.3-1.9 4.2-4.3 4.2s-4.3-1.9-4.3-4.2c0-2.3 1.9-4.2 4.3-4.2 2.4.1 4.3 2 4.3 4.2z" style="opacity:.8348;fill:#178cff"/><path d="M988.8 646c0 2.3-1.9 4.2-4.3 4.2-2.3 0-4.3-1.9-4.3-4.2 0-2.3 1.9-4.2 4.3-4.2 2.4.1 4.3 2 4.3 4.2z" style="opacity:.6404;fill:#178cff"/><path d="M1122.2 608.4c0 2.3-1.9 4.2-4.3 4.2s-4.3-1.9-4.3-4.2c0-2.3 1.9-4.2 4.3-4.2s4.3 1.9 4.3 4.2z" style="opacity:.8945;fill:#178cff"/><path d="M1155.5 627.2c0 2.3-1.9 4.2-4.3 4.2s-4.3-1.8-4.3-4.2c0-2.3 1.9-4.2 4.3-4.2s4.3 1.9 4.3 4.2z" style="opacity:.8456;fill:#178cff"/><path d="M1088.8 777.9c0 2.3-1.9 4.2-4.3 4.2s-4.3-1.9-4.3-4.2c0-2.3 1.9-4.2 4.3-4.2s4.3 1.9 4.3 4.2z" style="opacity:.9902;fill:#178cff"/><path d="M1155.5 890.9c0 2.3-1.9 4.2-4.3 4.2s-4.3-1.9-4.3-4.2c0-2.3 1.9-4.2 4.3-4.2s4.3 1.9 4.3 4.2z" style="opacity:.7274;fill:#178cff"/><path d="M1022.2 815.6c0 2.3-1.9 4.2-4.3 4.2-2.3 0-4.3-1.9-4.3-4.2 0-2.3 1.9-4.2 4.3-4.2s4.3 1.9 4.3 4.2z" style="opacity:.9855;fill:#178cff"/><path d="M1122.2 909.8c0 2.3-1.9 4.2-4.3 4.2s-4.3-1.9-4.3-4.2c0-2.3 1.9-4.2 4.3-4.2s4.3 1.9 4.3 4.2z" style="opacity:.5371;fill:#178cff"/><ellipse cx="1017.9" cy="420" rx="4.3" ry="4.2" style="opacity:.7825;fill:#178cff"/><path d="M1188.9 683.7c0 2.3-1.9 4.2-4.3 4.2-2.3 0-4.3-1.9-4.3-4.2 0-2.3 1.9-4.2 4.3-4.2 2.3.1 4.3 1.9 4.3 4.2z" style="opacity:.5344;fill:#178cff"/><path d="M1122.2 646c0 2.3-1.9 4.2-4.3 4.2s-4.3-1.9-4.3-4.2c0-2.3 1.9-4.2 4.3-4.2 2.4.1 4.3 2 4.3 4.2z" style="opacity:.9922;fill:#178cff"/><path d="M1005.5 599c0 2.3-1.9 4.2-4.3 4.2s-4.3-1.9-4.3-4.2c0-2.3 1.9-4.2 4.3-4.2s4.3 1.8 4.3 4.2z" style="opacity:.6301;fill:#178cff"/><path d="M1038.8 730.8c0 2.3-1.9 4.2-4.3 4.2-2.3 0-4.3-1.9-4.3-4.2s1.9-4.2 4.3-4.2 4.3 1.9 4.3 4.2z" style="opacity:.8077;fill:#178cff"/><path d="M1222.2 777.9c0 2.3-1.9 4.2-4.3 4.2s-4.3-1.9-4.3-4.2c0-2.3 1.9-4.2 4.3-4.2s4.3 1.9 4.3 4.2z" style="opacity:.7663;fill:#178cff"/><path class="st101" d="M1288.9 815.6c0 2.3-1.9 4.2-4.3 4.2s-4.3-1.9-4.3-4.2c0-2.3 1.9-4.2 4.3-4.2s4.3 1.9 4.3 4.2z"/><path d="M1355.5 777.9c0 2.3-1.9 4.2-4.3 4.2-2.3 0-4.3-1.9-4.3-4.2 0-2.3 1.9-4.2 4.3-4.2s4.3 1.9 4.3 4.2z" style="opacity:.8535;fill:#178cff"/><path d="M1355.5 702.6c0 2.3-1.9 4.2-4.3 4.2-2.3 0-4.3-1.9-4.3-4.2 0-2.3 1.9-4.2 4.3-4.2s4.3 1.9 4.3 4.2z" style="opacity:.5589;fill:#178cff"/><path d="M1288.9 664.9c0 2.3-1.9 4.2-4.3 4.2s-4.3-1.9-4.3-4.2c0-2.3 1.9-4.2 4.3-4.2s4.3 1.9 4.3 4.2z" style="opacity:.8499;fill:#178cff"/><path d="M1272.2 881.5c0 2.3-1.9 4.2-4.3 4.2-2.3 0-4.3-1.9-4.3-4.2 0-2.3 1.9-4.2 4.3-4.2 2.4.1 4.3 1.9 4.3 4.2z" style="opacity:.6091;fill:#178cff"/><path d="M1422.2 401.1c0 2.3-1.9 4.2-4.3 4.2-2.3 0-4.3-1.9-4.3-4.2 0-2.3 1.9-4.2 4.3-4.2 2.4.1 4.3 1.9 4.3 4.2z" style="opacity:.5784;fill:#178cff"/><path d="M1422.2 815.6c0 2.3-1.9 4.2-4.3 4.2-2.3 0-4.3-1.9-4.3-4.2 0-2.3 1.9-4.2 4.3-4.2s4.3 1.9 4.3 4.2z" style="opacity:.7656;fill:#178cff"/><path d="M1155.5 890.9c0 2.3-1.9 4.2-4.3 4.2s-4.3-1.9-4.3-4.2c0-2.3 1.9-4.2 4.3-4.2s4.3 1.9 4.3 4.2z" style="opacity:.5656;fill:#178cff"/><path d="M1405.5 900.4c0 2.3-1.9 4.2-4.3 4.2s-4.3-1.9-4.3-4.2c0-2.3 1.9-4.2 4.3-4.2s4.3 1.9 4.3 4.2z" style="opacity:.9124;fill:#178cff"/><path d="M1138.8 900.4c0 2.3-1.9 4.2-4.3 4.2-2.3 0-4.3-1.9-4.3-4.2 0-2.3 1.9-4.2 4.3-4.2s4.3 1.9 4.3 4.2z" style="opacity:.9768;fill:#178cff"/><path d="M1272.2 448.2c0 2.3-1.9 4.2-4.3 4.2-2.3 0-4.3-1.9-4.3-4.2 0-2.3 1.9-4.2 4.3-4.2 2.4.1 4.3 1.9 4.3 4.2z" style="opacity:.9016;fill:#178cff"/><path d="M1288.9 570.7c0 2.3-1.9 4.2-4.3 4.2s-4.3-1.9-4.3-4.2c0-2.3 1.9-4.2 4.3-4.2s4.3 1.9 4.3 4.2z" style="opacity:.6844;fill:#178cff"/><path d="M1555.5 777.9c0 2.3-1.9 4.2-4.3 4.2-2.3 0-4.3-1.9-4.3-4.2 0-2.3 1.9-4.2 4.3-4.2s4.3 1.9 4.3 4.2z" style="opacity:.9473;fill:#178cff"/><path d="M1488.9 777.9c0 2.3-1.9 4.2-4.3 4.2-2.3 0-4.3-1.9-4.3-4.2 0-2.3 1.9-4.2 4.3-4.2s4.3 1.9 4.3 4.2z" style="opacity:.9003;fill:#178cff"/><path d="M1422.2 740.2c0 2.3-1.9 4.2-4.3 4.2-2.3 0-4.3-1.9-4.3-4.2 0-2.3 1.9-4.2 4.3-4.2 2.4.1 4.3 1.9 4.3 4.2z" style="opacity:.935;fill:#178cff"/><path d="M1422.2 589.5c0 2.3-1.9 4.2-4.3 4.2-2.3 0-4.3-1.9-4.3-4.2 0-2.3 1.9-4.2 4.3-4.2 2.4.1 4.3 1.9 4.3 4.2z" style="opacity:.5725;fill:#178cff"/><path d="M1438.9 599c0 2.3-1.9 4.2-4.3 4.2-2.3 0-4.3-1.9-4.3-4.2 0-2.3 1.9-4.2 4.3-4.2s4.3 1.8 4.3 4.2z" style="opacity:.7228;fill:#178cff"/><path d="M1688.9 514.2c0 2.3-1.9 4.2-4.3 4.2s-4.3-1.9-4.3-4.2c0-2.3 1.9-4.2 4.3-4.2s4.3 1.9 4.3 4.2z" style="opacity:.7894;fill:#178cff"/><path d="M1622.2 551.9c0 2.3-1.9 4.2-4.3 4.2s-4.3-1.9-4.3-4.2c0-2.3 1.9-4.2 4.3-4.2s4.3 1.8 4.3 4.2z" style="opacity:.8898;fill:#178cff"/><path d="M1522.2 796.8c0 2.3-1.9 4.2-4.3 4.2s-4.3-1.9-4.3-4.2c0-2.3 1.9-4.2 4.3-4.2s4.3 1.8 4.3 4.2z" style="opacity:.5427;fill:#178cff"/><path d="M1622.2 702.6c0 2.3-1.9 4.2-4.3 4.2s-4.3-1.9-4.3-4.2c0-2.3 1.9-4.2 4.3-4.2s4.3 1.9 4.3 4.2z" style="opacity:.8321;fill:#178cff"/><path d="M1555.5 890.9c0 2.3-1.9 4.2-4.3 4.2-2.3 0-4.3-1.9-4.3-4.2 0-2.3 1.9-4.2 4.3-4.2 2.4.1 4.3 1.9 4.3 4.2z" style="opacity:.5515;fill:#178cff"/><path d="M1422.2 815.6c0 2.3-1.9 4.2-4.3 4.2-2.3 0-4.3-1.9-4.3-4.2 0-2.3 1.9-4.2 4.3-4.2s4.3 1.9 4.3 4.2z" style="opacity:.7361;fill:#178cff"/><path d="M1622.2 853.3c0 2.3-1.9 4.2-4.3 4.2s-4.3-1.9-4.3-4.2c0-2.3 1.9-4.2 4.3-4.2s4.3 1.9 4.3 4.2z" style="opacity:.5694;fill:#178cff"/><path d="M1488.9 777.9c0 2.3-1.9 4.2-4.3 4.2-2.3 0-4.3-1.9-4.3-4.2 0-2.3 1.9-4.2 4.3-4.2s4.3 1.9 4.3 4.2z" style="opacity:.7041;fill:#178cff"/><path d="M1722.2 909.8c0 2.3-1.9 4.2-4.3 4.2s-4.3-1.9-4.3-4.2c0-2.3 1.9-4.2 4.3-4.2s4.3 1.9 4.3 4.2z" style="opacity:.9472;fill:#178cff"/><path d="M1688.9 853.3c0 2.3-1.9 4.2-4.3 4.2s-4.3-1.9-4.3-4.2c0-2.3 1.9-4.2 4.3-4.2s4.3 1.9 4.3 4.2z" style="opacity:.988;fill:#178cff"/><ellipse cx="1551.3" cy="420" rx="4.3" ry="4.2" style="opacity:.5764;fill:#178cff"/><path d="M1488.9 476.5c0 2.3-1.9 4.2-4.3 4.2-2.3 0-4.3-1.9-4.3-4.2 0-2.3 1.9-4.2 4.3-4.2s4.3 1.9 4.3 4.2z" style="opacity:.6501;fill:#178cff"/><path d="M1755.6 476.5c0 2.3-1.9 4.2-4.3 4.2-2.3 0-4.3-1.9-4.3-4.2 0-2.3 1.9-4.2 4.3-4.2s4.3 1.9 4.3 4.2z" style="opacity:.6553;fill:#178cff"/><path d="M1822.2 664.9c0 2.3-1.9 4.2-4.3 4.2-2.3 0-4.3-1.9-4.3-4.2 0-2.3 1.9-4.2 4.3-4.2s4.3 1.9 4.3 4.2z" style="opacity:.6531;fill:#178cff"/><path d="M1888.9 627.2c0 2.3-1.9 4.2-4.3 4.2-2.3 0-4.3-1.8-4.3-4.2 0-2.3 1.9-4.2 4.3-4.2s4.3 1.9 4.3 4.2z" style="opacity:.7985;fill:#178cff"/><path d="M1538.9 599c0 2.3-1.9 4.2-4.3 4.2s-4.3-1.9-4.3-4.2c0-2.3 1.9-4.2 4.3-4.2s4.3 1.8 4.3 4.2z" style="opacity:.8668;fill:#178cff"/><path d="M1555.5 570.7c0 2.3-1.9 4.2-4.3 4.2-2.3 0-4.3-1.9-4.3-4.2 0-2.3 1.9-4.2 4.3-4.2s4.3 1.9 4.3 4.2z" style="opacity:.8785;fill:#178cff"/><path d="M1538.9 749.7c0 2.3-1.9 4.2-4.3 4.2s-4.3-1.9-4.3-4.2c0-2.3 1.9-4.2 4.3-4.2s4.3 1.9 4.3 4.2z" style="opacity:.74;fill:#178cff"/><path d="M1555.5 759.1c0 2.3-1.9 4.2-4.3 4.2-2.3 0-4.3-1.9-4.3-4.2 0-2.3 1.9-4.2 4.3-4.2s4.3 1.9 4.3 4.2z" style="opacity:.9974;fill:#178cff"/><path d="M1572.2 730.8c0 2.3-1.9 4.2-4.3 4.2-2.3 0-4.3-1.9-4.3-4.2s1.9-4.2 4.3-4.2 4.3 1.9 4.3 4.2z" style="opacity:.9965;fill:#178cff"/><path d="M1538.9 730.8c0 2.3-1.9 4.2-4.3 4.2s-4.3-1.9-4.3-4.2 1.9-4.2 4.3-4.2 4.3 1.9 4.3 4.2z" style="opacity:.5958;fill:#178cff"/><path d="M1822.2 909.8c0 2.3-1.9 4.2-4.3 4.2-2.3 0-4.3-1.9-4.3-4.2 0-2.3 1.9-4.2 4.3-4.2s4.3 1.9 4.3 4.2z" style="opacity:.502;fill:#178cff"/><path d="M1822.2 872.1c0 2.3-1.9 4.2-4.3 4.2-2.3 0-4.3-1.9-4.3-4.2 0-2.3 1.9-4.2 4.3-4.2s4.3 1.9 4.3 4.2z" style="opacity:.8656;fill:#178cff"/><path d="M1705.6 599c0 2.3-1.9 4.2-4.3 4.2s-4.3-1.9-4.3-4.2c0-2.3 1.9-4.2 4.3-4.2s4.3 1.8 4.3 4.2z" style="opacity:.6714;fill:#178cff"/><path d="M1672.2 580.1c0 2.3-1.9 4.2-4.3 4.2-2.3 0-4.3-1.9-4.3-4.2 0-2.3 1.9-4.2 4.3-4.2s4.3 1.9 4.3 4.2z" style="opacity:.9386;fill:#178cff"/><path d="M1755.6 551.9c0 2.3-1.9 4.2-4.3 4.2-2.3 0-4.3-1.9-4.3-4.2 0-2.3 1.9-4.2 4.3-4.2s4.3 1.8 4.3 4.2z" style="opacity:.8257;fill:#178cff"/><path d="M1688.9 514.2c0 2.3-1.9 4.2-4.3 4.2s-4.3-1.9-4.3-4.2c0-2.3 1.9-4.2 4.3-4.2s4.3 1.9 4.3 4.2z" style="opacity:.8822;fill:#178cff"/><path class="st145" d="M1622.2 551.9c0 2.3-1.9 4.2-4.3 4.2s-4.3-1.9-4.3-4.2c0-2.3 1.9-4.2 4.3-4.2s4.3 1.8 4.3 4.2z"/><path d="M1888.9 777.9c0 2.3-1.9 4.2-4.3 4.2-2.3 0-4.3-1.9-4.3-4.2 0-2.3 1.9-4.2 4.3-4.2s4.3 1.9 4.3 4.2z" style="opacity:.85;fill:#178cff"/><path d="M1888.9 702.6c0 2.3-1.9 4.2-4.3 4.2-2.3 0-4.3-1.9-4.3-4.2 0-2.3 1.9-4.2 4.3-4.2s4.3 1.9 4.3 4.2z" style="opacity:.7173;fill:#178cff"/><path d="M1920.5 718c-.7-.5-1.6-.8-2.5-.8-2.3 0-4.3 1.9-4.3 4.2 0 2.3 1.9 4.2 4.3 4.2 1 0 1.8-.3 2.5-.8V718z" style="opacity:.7483;fill:#178cff"/><path d="M1622.2 853.3c0 2.3-1.9 4.2-4.3 4.2s-4.3-1.9-4.3-4.2c0-2.3 1.9-4.2 4.3-4.2s4.3 1.9 4.3 4.2z" style="opacity:.9308;fill:#178cff"/><path class="st150" d="M1888.9 853.3c0 2.3-1.9 4.2-4.3 4.2-2.3 0-4.3-1.9-4.3-4.2 0-2.3 1.9-4.2 4.3-4.2s4.3 1.9 4.3 4.2z"/><path d="M1822.2 589.5c0 2.3-1.9 4.2-4.3 4.2-2.3 0-4.3-1.9-4.3-4.2 0-2.3 1.9-4.2 4.3-4.2 2.4.1 4.3 1.9 4.3 4.2z" style="opacity:.5499;fill:#178cff"/><path d="M1822.2 740.2c0 2.3-1.9 4.2-4.3 4.2-2.3 0-4.3-1.9-4.3-4.2 0-2.3 1.9-4.2 4.3-4.2 2.4.1 4.3 1.9 4.3 4.2z" style="opacity:.5903;fill:#178cff"/><path style="opacity:.8516;fill:#178cff" d="M7.3-15.9H5.9l11.6 6.6V141l-18 10.1v.8L18 141.5l.2-.1V-9.7z"/><path d="m17.8 160.4-17-9.6v-19.2l17-9.6 17 9.6v19.2l-17 9.6zm-16.3-10 16.3 9.2 16.3-9.2V132l-16.3-9.2L1.5 132v18.4z" style="opacity:.9669;fill:#178cff"/><path class="st63" d="m28.3-15.9-10.5 6-10.5-6H5.9l11.9 6.8 11.9-6.8z"/><path style="opacity:.8412;fill:#178cff" d="M17.8-9.9-.5.4v.8L17.8-9.1l66.3 37.4v75l-66.3 37.5-18.3-10.4v.8l18.1 10.3.2.1 66.9-37.8.1-.1V27.9z"/><path d="m151.2 216.9-67-37.9v-75.8l67-37.9 67 37.9V179l-67 37.9zm-66.4-38.3 66.3 37.5 66.3-37.5v-74.9l-66.3-37.5-66.3 37.5v74.9z" style="opacity:.994;fill:#178cff"/><path d="m151.2 216.9-67-37.9v-75.8l67-37.9 67 37.9V179l-67 37.9zm-66.4-38.3 66.3 37.5 66.3-37.5v-74.9l-66.3-37.5-66.3 37.5v74.9z" style="opacity:.9394;fill:#178cff"/><path class="st69" d="m161.7-15.9-10.5 6-10.5-6h-1.5l12 6.8 11.9-6.8z"/><path d="m151.2 141.6-.2-.1-66.9-37.8V27.9l67-37.9 67 37.9v75.8l-.2.1-66.7 37.8zm-66.4-38.3 66.3 37.5 66.3-37.5v-75L151.2-9.1 84.8 28.3v75z" style="opacity:.7716;fill:#178cff"/><path class="st70" d="m161.7-15.9-10.5 6-10.5-6h-1.5l12 6.8 11.9-6.8z"/><path style="opacity:.6715;fill:#178cff" d="M317.5-15.9v25l-33 18.6-33-18.6v-25h-.7V9.5l33.7 19 33.7-19v-25.4z"/><path style="opacity:.9459;fill:#178cff" d="M350.8-15.9v43.8l-66.3 37.5-66.3-37.5v-43.8h-.7v44.2l67 37.9 67-37.9v-44.2z"/><path d="m284.5 160.4-17-9.6v-19.2l17-9.6 17 9.6v19.2l-17 9.6zm-16.3-10 16.3 9.2 16.3-9.2V132l-16.3-9.2-16.3 9.2v18.4z" style="opacity:.5261;fill:#178cff"/><path d="m151.2 141.6-.2-.1-66.9-37.8V27.9l67-37.9 67 37.9v75.8l-.2.1-66.7 37.8zm-66.4-38.3 66.3 37.5 66.3-37.5v-75L151.2-9.1 84.8 28.3v75z" style="opacity:.5223;fill:#178cff"/><path style="opacity:.8962;fill:#178cff" d="M434.2-15.9V-.3l-16.3 9.2-16.4-9.2v-15.6h-.7v16l17.1 9.6 17-9.6v-16z"/><path d="m417.9 160.4-17-9.6v-19.2l17-9.6 17 9.6v19.2l-17 9.6zm-16.4-10 16.3 9.2 16.3-9.2V132l-16.3-9.2-16.3 9.2v18.4z" style="opacity:.5211;fill:#178cff"/><path d="m284.5 367.6-.2-.1L150.8 292V141l.2-.1 133.5-75.5.2.1L418.2 141v151.1l-.2.1-133.5 75.4zm-133-75.9 133 75.2 133-75.2V141.4l-133-75.2-133 75.2v150.3z" style="opacity:.6374;fill:#178cff"/><path d="m284.5 141.6-.2-.1-66.8-37.8V27.9l67-37.9 67 37.9v75.8l-.2.1-66.8 37.8zm-66.3-38.3 66.3 37.5 66.3-37.5v-75L284.5-9.1l-66.3 37.5v74.9z" style="opacity:.5189;fill:#178cff"/><path d="m417.9 179.2-33.7-19v-38.1l33.7-19 33.7 19v38.1l-33.7 19zm-33-19.4 33 18.6 33-18.6v-37.3l-33-18.6-33 18.6v37.3z" style="opacity:.5082;fill:#178cff"/><path style="opacity:.5792;fill:#178cff" d="M617.5-15.9v43.8l-66.3 37.5-66.3-37.5v-43.8h-.7v44.2l67 37.9 66.9-37.8.1-.1v-44.2z"/><path d="m417.9 141.6-.2-.1-66.8-37.8V27.9l67-37.9 67 37.9v75.8l-.2.1-66.8 37.8zm-66.4-38.3 66.3 37.5 66.3-37.5v-75L417.9-9.1l-66.3 37.5v74.9z" style="opacity:.9861;fill:#178cff"/><path style="opacity:.9808;fill:#178cff" d="M300.8-15.9V-.3l-16.3 9.2-16.3-9.2v-15.6h-.7v16l17 9.6 17-9.6v-16z"/><path style="opacity:.9699;fill:#178cff" d="M617.5-15.9v43.8l-66.3 37.5-66.3-37.5v-43.8h-.7v44.2l67 37.9 66.9-37.8.1-.1v-44.2z"/><path d="m284.5 216.9-67-37.9v-75.8l67-37.9 67 37.9V179l-67 37.9zm-66.3-38.3 66.3 37.5 66.3-37.5v-74.9l-66.3-37.5-66.3 37.5v74.9z" style="opacity:.9622;fill:#178cff"/><path d="m284.5 216.9-67-37.9v-75.8l67-37.9 67 37.9V179l-67 37.9zm-66.3-38.3 66.3 37.5 66.3-37.5v-74.9l-66.3-37.5-66.3 37.5v74.9z" style="opacity:.6304;fill:#178cff"/><path d="m417.9 405.3-33.7-19v-38.1l33.7-19 33.7 19v38.1l-33.7 19zm-33-19.4 33 18.6 33-18.6v-37.3l-33-18.6-33 18.6v37.3z" style="opacity:.8387;fill:#178cff"/><path d="m417.9 443-67-37.9v-75.8l67-37.9 67 37.9v75.8l-67 37.9zm-66.4-38.3 66.3 37.5 66.3-37.5v-75l-66.3-37.5-66.3 37.5v75z" style="opacity:.9051;fill:#178cff"/><path style="opacity:.6545;fill:#178cff" d="M484.2-15.9v43.8l-66.3 37.5-66.4-37.5v-43.8h-.7v44.2l67.1 37.9 67-37.9v-44.2z"/><path style="opacity:.9574;fill:#178cff" d="m561.7-15.9-10.5 6-10.5-6h-1.4l11.9 6.8 11.9-6.8z"/><path class="st150" d="m551.2 367.6-.2-.1L417.5 292V141l.2-.1 133.5-75.5.2.1L684.9 141v151.1l-.2.1-133.5 75.4zm-133-75.9 133 75.2 133-75.2V141.4l-133-75.2-133 75.2v150.3z"/><path d="m684.5 179.2-33.7-19v-38.1l33.7-19 33.7 19v38.1l-33.7 19zm-32.9-19.4 33 18.6 33-18.6v-37.3l-33-18.6-33 18.6v37.3z" style="opacity:.8086;fill:#178cff"/><path d="m551.2 405.3-33.7-19v-38.1l33.7-19 33.7 19v38.1l-33.7 19zm-33-19.4 33 18.6 33-18.6v-37.3l-33-18.6-33 18.6v37.3z" style="opacity:.5531;fill:#178cff"/><path class="st180" d="m695.1-15.9-10.6 6-10.5-6h-1.4l11.9 6.8 12-6.8z"/><path style="opacity:.8754;fill:#178cff" d="M884.2-15.9v43.8l-66.3 37.5-66.3-37.5v-43.8h-.7v44.2l67 37.9 67-37.9v-44.2z"/><path style="opacity:.5051;fill:#178cff" d="M617.5-15.9v43.8l-66.3 37.5-66.3-37.5v-43.8h-.7v44.2l67 37.9 66.9-37.8.1-.1v-44.2z"/><path style="opacity:.8517;fill:#178cff" d="m806-15.9 11.5 6.6V141l-133 75.1L551.6 141V-9.3l11.5-6.6h-1.4L551-9.8l-.2.1v151.1l133.6 75.4.1.1 133.6-75.4.1-.1V-9.7l-10.8-6.2z"/><path d="m817.9 160.4-17-9.6v-19.2l17-9.6 17 9.6v19.2l-17 9.6zm-16.3-10 16.3 9.2 16.3-9.2V132l-16.3-9.2-16.3 9.2v18.4z" style="opacity:.61;fill:#178cff"/><path d="m551.2 216.9-67-37.9v-75.8l67-37.9.2.1 66.8 37.8V179l-.2.1-66.8 37.8zm-66.3-38.3 66.3 37.5 66.3-37.5v-74.9l-66.3-37.5-66.3 37.5v74.9z" style="opacity:.6181;fill:#178cff"/><path d="m684.5 367.6-.2-.1L550.8 292V141l.2-.1 133.5-75.5.2.1L818.2 141v151.1l-.2.1-133.5 75.4zm-132.9-75.9 133 75.2 133-75.2V141.4l-133-75.2-133 75.2v150.3z" style="opacity:.876;fill:#178cff"/><path d="m684.5 405.3-33.7-19v-38.1l33.7-19 33.7 19v38.1l-33.7 19zm-32.9-19.4 33 18.6 33-18.6v-37.3l-33-18.6-33 18.6v37.3z" style="opacity:.5845;fill:#178cff"/><path class="st101" d="m551.2 367.6-.2-.1-66.8-37.8V254l67-37.9.2.1 66.8 37.8v75.8l-.2.1-66.8 37.7zm-66.3-38.2 66.3 37.5 66.3-37.5v-75l-66.3-37.5-66.3 37.5v75z"/><path style="opacity:.8471;fill:#178cff" d="M1017.6-15.9v43.8l-66.4 37.5-66.3-37.5v-43.8h-.7v44.2l67 37.9 67.1-37.9v-44.2z"/><path d="m817.9 103.9-33.7-19V46.8l33.7-19 33.7 19v38.1l-33.7 19zm-33-19.5 33 18.6 33-18.6V47.2l-33-18.6-33 18.6v37.2z" style="opacity:.7774;fill:#178cff"/><path style="opacity:.6187;fill:#178cff" d="m828.4-15.9-10.5 6-10.5-6H806l11.9 6.8 11.9-6.8z"/><path style="opacity:.6525;fill:#178cff" d="M984.2-15.9v25l-33 18.6-32.9-18.6v-25h-.8V9.5l33.7 19 33.7-19v-25.4z"/><path style="opacity:.6134;fill:#178cff" d="M1017.6-15.9v43.8l-66.4 37.5-66.3-37.5v-43.8h-.7v44.2l67 37.9 67.1-37.9v-44.2z"/><path d="m684.5 216.9-67-37.9v-75.8l67-37.9.2.1 66.8 37.8V179l-.2.1-66.8 37.8zm-66.3-38.3 66.3 37.5 66.3-37.5v-74.9l-66.3-37.5-66.3 37.5v74.9z" style="opacity:.951;fill:#178cff"/><path d="m951.2 367.6-.2-.1-66.8-37.8V254l67-37.9 67 37.9v75.8l-.2.1-66.8 37.7zm-66.3-38.2 66.3 37.5 66.3-37.5v-75l-66.3-37.5-66.3 37.5v75z" style="opacity:.6256;fill:#178cff"/><path d="m684.5 367.6-.2-.1-66.9-37.8V254l67-37.9.2.1 66.8 37.8v75.8l-.2.1-66.7 37.7zm-66.3-38.2 66.3 37.5 66.3-37.5v-75l-66.3-37.5-66.3 37.5v75z" style="opacity:.6699;fill:#178cff"/><path d="M22.1 160c0 2.3-1.9 4.2-4.3 4.2s-4.3-1.9-4.3-4.2c0-2.3 1.9-4.2 4.3-4.2s4.3 1.9 4.3 4.2z" style="opacity:.6867;fill:#178cff"/><path d="M88.7 103.5c0 2.3-1.9 4.2-4.3 4.2s-4.3-1.9-4.3-4.2c0-2.3 1.9-4.2 4.3-4.2s4.3 1.9 4.3 4.2z" style="opacity:.975;fill:#178cff"/><path d="M155.4-9.5c0 2.3-1.9 4.2-4.3 4.2-2.3 0-4.3-1.9-4.3-4.2 0-2.3 1.9-4.2 4.3-4.2s4.3 1.9 4.3 4.2z" style="opacity:.9056;fill:#178cff"/><path d="M155.4 141.2c0 2.3-1.9 4.2-4.3 4.2-2.3 0-4.3-1.9-4.3-4.2 0-2.3 1.9-4.2 4.3-4.2s4.3 1.9 4.3 4.2z" style="opacity:.862;fill:#178cff"/><path class="st145" d="M255.4 9.3c0 2.3-1.9 4.2-4.3 4.2s-4.3-1.9-4.3-4.2c0-2.3 1.9-4.2 4.3-4.2s4.3 1.9 4.3 4.2z"/><path d="M322.1 9.3c0 2.3-1.9 4.2-4.3 4.2-2.3 0-4.3-1.9-4.3-4.2 0-2.3 1.9-4.2 4.3-4.2s4.3 1.9 4.3 4.2z" style="opacity:.5437;fill:#178cff"/><path d="M222.1 28.1c0 2.3-1.9 4.2-4.3 4.2s-4.3-1.9-4.3-4.2c0-2.3 1.9-4.2 4.3-4.2 2.4.1 4.3 1.9 4.3 4.2z" style="opacity:.8559;fill:#178cff"/><path d="M288.8 160c0 2.3-1.9 4.2-4.3 4.2s-4.3-1.9-4.3-4.2c0-2.3 1.9-4.2 4.3-4.2s4.3 1.9 4.3 4.2z" style="opacity:.691;fill:#178cff"/><path d="M155.4 141.2c0 2.3-1.9 4.2-4.3 4.2-2.3 0-4.3-1.9-4.3-4.2 0-2.3 1.9-4.2 4.3-4.2s4.3 1.9 4.3 4.2z" style="opacity:.6169;fill:#178cff"/><path d="M222.1 103.5c0 2.3-1.9 4.2-4.3 4.2s-4.3-1.9-4.3-4.2c0-2.3 1.9-4.2 4.3-4.2s4.3 1.9 4.3 4.2z" style="opacity:.5121;fill:#178cff"/><path d="M422.1 9.3c0 2.3-1.9 4.2-4.3 4.2s-4.3-1.9-4.3-4.2c0-2.3 1.9-4.2 4.3-4.2s4.3 1.9 4.3 4.2z" style="opacity:.8706;fill:#178cff"/><path d="M438.8 131.7c0 2.3-1.9 4.2-4.3 4.2-2.3 0-4.3-1.9-4.3-4.2 0-2.3 1.9-4.2 4.3-4.2 2.4.1 4.3 2 4.3 4.2z" style="opacity:.6625;fill:#178cff"/><path d="M288.8 367.2c0 2.3-1.9 4.2-4.3 4.2s-4.3-1.9-4.3-4.2c0-2.3 1.9-4.2 4.3-4.2 2.4.1 4.3 1.9 4.3 4.2z" style="opacity:.6645;fill:#178cff"/><path class="st180" d="M422.1 291.9c0 2.3-1.9 4.2-4.3 4.2s-4.3-1.9-4.3-4.2c0-2.3 1.9-4.2 4.3-4.2s4.3 1.9 4.3 4.2z"/><path d="M155.4 141.2c0 2.3-1.9 4.2-4.3 4.2-2.3 0-4.3-1.9-4.3-4.2 0-2.3 1.9-4.2 4.3-4.2s4.3 1.9 4.3 4.2z" style="opacity:.6405;fill:#178cff"/><path d="M288.8 141.2c0 2.3-1.9 4.2-4.3 4.2s-4.3-1.9-4.3-4.2c0-2.3 1.9-4.2 4.3-4.2s4.3 1.9 4.3 4.2z" style="opacity:.5246;fill:#178cff"/><path d="M355.4 103.5c0 2.3-1.9 4.2-4.3 4.2s-4.3-1.9-4.3-4.2c0-2.3 1.9-4.2 4.3-4.2s4.3 1.9 4.3 4.2z" style="opacity:.7605;fill:#178cff"/><path d="M355.4 28.1c0 2.3-1.9 4.2-4.3 4.2s-4.3-1.9-4.3-4.2c0-2.3 1.9-4.2 4.3-4.2 2.4.1 4.3 1.9 4.3 4.2z" style="opacity:.6166;fill:#178cff"/><path d="M455.4 122.3c0 2.3-1.9 4.2-4.3 4.2s-4.3-1.9-4.3-4.2c0-2.3 1.9-4.2 4.3-4.2 2.4.1 4.3 1.9 4.3 4.2z" style="opacity:.5032;fill:#178cff"/><path d="M622.1 28.1c0 2.3-1.9 4.2-4.3 4.2s-4.3-1.9-4.3-4.2c0-2.3 1.9-4.2 4.3-4.2 2.4.1 4.3 1.9 4.3 4.2z" style="opacity:.9074;fill:#178cff"/><path class="st214" d="M265-15.9c.8.7 1.7 1.1 2.8 1.1 1.1 0 2.1-.4 2.8-1.1H265zM555.5 65.8c0 2.3-1.9 4.2-4.3 4.2s-4.3-1.9-4.3-4.2c0-2.3 1.9-4.2 4.3-4.2s4.3 1.9 4.3 4.2z"/><path d="M355.4 103.5c0 2.3-1.9 4.2-4.3 4.2s-4.3-1.9-4.3-4.2c0-2.3 1.9-4.2 4.3-4.2s4.3 1.9 4.3 4.2z" style="opacity:.6607;fill:#178cff"/><path d="M455.4 386.1c0 2.3-1.9 4.2-4.3 4.2s-4.3-1.9-4.3-4.2c0-2.3 1.9-4.2 4.3-4.2s4.3 1.9 4.3 4.2z" style="opacity:.5786;fill:#178cff"/><path d="M422.1 329.6c0 2.3-1.9 4.2-4.3 4.2s-4.3-1.9-4.3-4.2c0-2.3 1.9-4.2 4.3-4.2s4.3 1.9 4.3 4.2z" style="opacity:.9283;fill:#178cff"/><path d="M388.8 348.4c0 2.3-1.9 4.2-4.3 4.2s-4.3-1.9-4.3-4.2c0-2.3 1.9-4.2 4.3-4.2s4.3 1.9 4.3 4.2z" style="opacity:.6334;fill:#178cff"/><path d="M355.4 404.9c0 2.3-1.9 4.2-4.3 4.2-2.3 0-4.3-1.9-4.3-4.2 0-2.3 1.9-4.2 4.3-4.2s4.3 1.9 4.3 4.2z" style="opacity:.6939;fill:#178cff"/><path d="M422.1 65.8c0 2.3-1.9 4.2-4.3 4.2s-4.3-1.9-4.3-4.2c0-2.3 1.9-4.2 4.3-4.2s4.3 1.9 4.3 4.2z" style="opacity:.7705;fill:#178cff"/><path d="M488.8 28.1c0 2.3-1.9 4.2-4.3 4.2-2.3 0-4.3-1.9-4.3-4.2 0-2.3 1.9-4.2 4.3-4.2 2.4.1 4.3 1.9 4.3 4.2z" style="opacity:.8428;fill:#178cff"/><path d="M722.1 160c0 2.3-1.9 4.2-4.3 4.2-2.3 0-4.3-1.9-4.3-4.2 0-2.3 1.9-4.2 4.3-4.2s4.3 1.9 4.3 4.2z" style="opacity:.9917;fill:#178cff"/><path d="M722.1 122.3c0 2.3-1.9 4.2-4.3 4.2-2.3 0-4.3-1.9-4.3-4.2 0-2.3 1.9-4.2 4.3-4.2 2.4.1 4.3 1.9 4.3 4.2z" style="opacity:.9612;fill:#178cff"/><path d="M888.8 28.1c0 2.3-1.9 4.2-4.3 4.2-2.3 0-4.3-1.9-4.3-4.2 0-2.3 1.9-4.2 4.3-4.2 2.4.1 4.3 1.9 4.3 4.2z" style="opacity:.6836;fill:#178cff"/><path d="M488.8 28.1c0 2.3-1.9 4.2-4.3 4.2s-4.3-1.9-4.3-4.2c0-2.3 1.9-4.2 4.3-4.2 2.4.1 4.3 1.9 4.3 4.2z" style="opacity:.9087;fill:#178cff"/><path d="M622.1 28.1c0 2.3-1.9 4.2-4.3 4.2s-4.3-1.9-4.3-4.2c0-2.3 1.9-4.2 4.3-4.2 2.4.1 4.3 1.9 4.3 4.2z" style="opacity:.7254;fill:#178cff"/><path d="M555.5 141.2c0 2.3-1.9 4.2-4.3 4.2s-4.3-1.9-4.3-4.2c0-2.3 1.9-4.2 4.3-4.2s4.3 1.9 4.3 4.2z" style="opacity:.5217;fill:#178cff"/><path d="M555.5-9.5c0 2.3-1.9 4.2-4.3 4.2s-4.3-1.9-4.3-4.2c0-2.3 1.9-4.2 4.3-4.2s4.3 1.9 4.3 4.2z" style="opacity:.758;fill:#178cff"/><path d="M805.5 150.6c0 2.3-1.9 4.2-4.3 4.2-2.3 0-4.3-1.9-4.3-4.2 0-2.3 1.9-4.2 4.3-4.2s4.3 1.9 4.3 4.2z" style="opacity:.5672;fill:#178cff"/><path d="M838.8 131.7c0 2.3-1.9 4.2-4.3 4.2-2.3 0-4.3-1.9-4.3-4.2 0-2.3 1.9-4.2 4.3-4.2 2.4.1 4.3 2 4.3 4.2z" style="opacity:.6639;fill:#178cff"/><path d="M822.1 122.3c0 2.3-1.9 4.2-4.3 4.2s-4.3-1.9-4.3-4.2c0-2.3 1.9-4.2 4.3-4.2 2.4.1 4.3 1.9 4.3 4.2z" style="opacity:.7845;fill:#178cff"/><path d="M688.8 404.9c0 2.3-1.9 4.2-4.3 4.2-2.3 0-4.3-1.9-4.3-4.2 0-2.3 1.9-4.2 4.3-4.2s4.3 1.9 4.3 4.2z" style="opacity:.8686;fill:#178cff"/><path d="M622.1 254.2c0 2.3-1.9 4.2-4.3 4.2s-4.3-1.9-4.3-4.2c0-2.3 1.9-4.2 4.3-4.2s4.3 1.9 4.3 4.2z" style="opacity:.9438;fill:#178cff"/><path d="M555.5 216.5c0 2.3-1.9 4.2-4.3 4.2s-4.3-1.9-4.3-4.2c0-2.3 1.9-4.2 4.3-4.2 2.4.1 4.3 1.9 4.3 4.2z" style="opacity:.8488;fill:#178cff"/><path d="M888.8 28.1c0 2.3-1.9 4.2-4.3 4.2s-4.3-1.9-4.3-4.2c0-2.3 1.9-4.2 4.3-4.2 2.4.1 4.3 1.9 4.3 4.2z" style="opacity:.5604;fill:#178cff"/><path d="M955.5 65.8c0 2.3-1.9 4.2-4.3 4.2s-4.3-1.9-4.3-4.2c0-2.3 1.9-4.2 4.3-4.2s4.3 1.9 4.3 4.2z" style="opacity:.8646;fill:#178cff"/><path d="M822.1 103.5c0 2.3-1.9 4.2-4.3 4.2s-4.3-1.9-4.3-4.2c0-2.3 1.9-4.2 4.3-4.2s4.3 1.9 4.3 4.2z" style="opacity:.5312;fill:#178cff"/><path d="M922.2 9.3c0 2.3-1.9 4.2-4.3 4.2-2.3 0-4.3-1.9-4.3-4.2 0-2.3 1.9-4.2 4.3-4.2s4.3 1.9 4.3 4.2z" style="opacity:.7235;fill:#178cff"/><path d="M988.8 9.3c0 2.3-1.9 4.2-4.3 4.2-2.3 0-4.3-1.9-4.3-4.2 0-2.3 1.9-4.2 4.3-4.2s4.3 1.9 4.3 4.2z" style="opacity:.5885;fill:#178cff"/><path d="M622.1 178.8c0 2.3-1.9 4.2-4.3 4.2s-4.3-1.9-4.3-4.2c0-2.3 1.9-4.2 4.3-4.2 2.4.1 4.3 1.9 4.3 4.2z" style="opacity:.8858;fill:#178cff"/><path d="M755.5 178.8c0 2.3-1.9 4.2-4.3 4.2s-4.3-1.9-4.3-4.2c0-2.3 1.9-4.2 4.3-4.2 2.4.1 4.3 1.9 4.3 4.2z" style="opacity:.5875;fill:#178cff"/><path d="M955.5 216.5c0 2.3-1.9 4.2-4.3 4.2s-4.3-1.9-4.3-4.2c0-2.3 1.9-4.2 4.3-4.2 2.4.1 4.3 1.9 4.3 4.2z" style="opacity:.9745;fill:#178cff"/><path d="M688.8 367.2c0 2.3-1.9 4.2-4.3 4.2-2.3 0-4.3-1.9-4.3-4.2 0-2.3 1.9-4.2 4.3-4.2 2.4.1 4.3 1.9 4.3 4.2z" style="opacity:.6677;fill:#178cff"/><path d="M688.8 216.5c0 2.3-1.9 4.2-4.3 4.2-2.3 0-4.3-1.9-4.3-4.2 0-2.3 1.9-4.2 4.3-4.2 2.4.1 4.3 1.9 4.3 4.2z" style="opacity:.779;fill:#178cff"/></g></svg>